<?xml version="1.0" standalone="no"?><!DOCTYPE svg PUBLIC "-//W3C//DTD SVG 1.1//EN" "http://www.w3.org/Graphics/SVG/1.1/DTD/svg11.dtd"><svg width="200" height="200" viewBox="0 0 200 200" version="1.1" xmlns="http://www.w3.org/2000/svg" xmlns:xlink="http://www.w3.org/1999/xlink"><defs><style type="text/css"><![CDATA[
@font-face { font-family: ifont; src: url("//at.alicdn.com/t/font_1442373896_4754455.eot?#iefix") format("embedded-opentype"), url("//at.alicdn.com/t/font_1442373896_4754455.woff") format("woff"), url("//at.alicdn.com/t/font_1442373896_4754455.ttf") format("truetype"), url("//at.alicdn.com/t/font_1442373896_4754455.svg#ifont") format("svg"); }

]]></style></defs><g class="transform-group"><g transform="scale(0.1953125, 0.1953125)"><path d="M564.783619 356.424103l-45.670042 47.544378-41.162394 42.850634c-12.403939 12.913573-47.067584 48.100232-55.337282 56.90389-8.269698 8.804875-13.533892 14.380444-15.788932 16.727924-5.261761 5.480697-9.302346 10.468788-12.121755 14.969138-2.819409 4.501567-5.359066 9.490874-7.61289 14.969138-1.880417 3.522436-4.322769 9.978615-7.330706 19.370968-3.007937 9.38992-6.107097 19.661666-9.302346 30.816453-3.196465 11.152355-6.203186 21.914274-9.022594 32.284541-2.819409 10.370267-4.604953 18.293316-5.355417 23.774013-1.504577 10.174441-0.564368 17.413923 2.819409 21.718448 3.383777 4.304524 10.150115 5.869916 20.299013 4.696176 4.885921-0.784521 12.310283-2.545739 22.271869-5.284871 9.961586-2.739132 20.485109-5.967221 31.574215-9.684268 11.08789-3.718262 21.708717-7.53383 31.858832-11.445486 10.150115-3.915305 17.854228-7.239483 23.115989-9.981047 5.264194-2.34748 10.337427-5.478264 15.22578-9.38992 4.885921-3.915305 9.20869-7.631135 12.965874-11.154787 1.504577-1.172524 6.203186-5.869916 14.095827-14.086097 7.895074-8.21618 17.856661-18.684968 29.884759-31.405148 12.029315-12.716531 49.886992-51.031541 64.923028-66.295027l45.108107-47.54681 117.734032-124.467529-106.348145-107.592431L564.783619 356.424103zM389.56795 501.945974M823.235094 424.132483 823.235094 599.799404l0 109.46555c0-0.235964 0-0.453684 0-0.655592 0 2.821841 0 9.826576 0 23.193833 0 60.097923-48.913944 108.982675-108.979026 108.982675L582.251061 840.78587l-0.00973 0L441.759851 840.78587l-0.00973 0L309.745113 840.78587c-60.065082 0-108.979026-48.884752-108.979026-108.982675 0-16.339921 0-23.182886 0-24.484339l0-0.234748L200.766087 424.200596l0-111.067432c0 0.59356 0 1.131169 0 1.601881 0-3.17822 0-10.105111 0-22.539458 0-60.097923 48.913944-108.982675 108.979026-108.982675l132.005008 0 79.675663 0 36.489328 0 18.607124 0 73.805747-62.234981-24.326218 0 0-0.038922L309.745113 120.939011c-91.634432 0-166.718521 72.372932-171.049805 162.985663l-0.203124 0 0 8.270914 0 1.441328 0 0 0 438.166278 0 8.270914 0.203124 0c4.331283 90.611515 79.415373 162.985663 171.049805 162.985663l3.11254 0 398.28466 0 3.11254 0c91.634432 0 166.718521-72.372932 171.049805-162.985663l0.203124 0 0-8.270914L885.507781 362.966639 823.235094 424.132483zM808.466647 145.510924c-4.010177-0.746815-7.966837-1.09468-11.807946-1.043595 0.575315 0.002433 1.15063 0.002433 1.724729 0.021894C801.803696 144.613287 805.164363 144.95507 808.466647 145.510924zM875.647148 224.881293c0.614237-11.002749-2.296395-23.083149-8.453361-34.628372-4.174379-7.829393-9.827792-15.413092-16.898208-22.237813-12.656931-12.216627-27.572552-19.848978-41.827716-22.502968-3.302284-0.555854-6.662951-0.897637-10.083218-1.020485-0.572882-0.020677-1.149414-0.019461-1.724729-0.021894-6.233593-0.03284-12.565708 0.940208-18.995128 2.949554-7.024196 2.194225-13.813643 5.972087-20.368343 11.333585-5.151077 4.384801-11.590227 10.358104-19.315017 17.915044-7.727223 7.555723-14.399905 14.013118-20.019261 19.375833l105.803238 107.544995c3.277958-2.922795 6.789448-6.334547 10.535685-10.235256 3.277958-3.411752 7.142178-7.311245 11.591443-11.700911 4.446833-4.384801 9.479927-9.503037 15.1005-15.353493 5.151077-5.849239 8.897314-11.94539 11.238713-18.279937 2.338966-6.339413 3.512706-12.675176 3.512706-19.013372C875.743236 227.616777 875.703098 226.245994 875.647148 224.881293z" fill="#272636"></path></g></g></svg>