<?xml version="1.0" standalone="no"?><!DOCTYPE svg PUBLIC "-//W3C//DTD SVG 1.1//EN" "http://www.w3.org/Graphics/SVG/1.1/DTD/svg11.dtd"><svg width="200.390625" height="200" viewBox="0 0 200.390625 200" version="1.1" xmlns="http://www.w3.org/2000/svg" xmlns:xlink="http://www.w3.org/1999/xlink"><defs><style type="text/css"><![CDATA[
@font-face { font-family: ifont; src: url("//at.alicdn.com/t/font_1442373896_4754455.eot?#iefix") format("embedded-opentype"), url("//at.alicdn.com/t/font_1442373896_4754455.woff") format("woff"), url("//at.alicdn.com/t/font_1442373896_4754455.ttf") format("truetype"), url("//at.alicdn.com/t/font_1442373896_4754455.svg#ifont") format("svg"); }

]]></style></defs><g class="transform-group"><g transform="scale(0.1953125, 0.1953125)"><path d="M931.622419 1023.999975 641.506666 1023.999975c-51.604218 0-93.403609-65.632026-93.403609-117.236244L548.103057 641.541676c0-51.575439 41.799391-93.408614 93.403609-93.408614l290.114502 0c51.540404 0 93.403609 41.834426 93.403609 93.408614l0 289.05469C1025.026028 982.200584 983.162823 1023.999975 931.622419 1023.999975L931.622419 1023.999975zM977.044191 644.905047c0-26.330138-21.363911-47.66527-47.66527-47.66527L643.428592 597.239777c-26.296354 0-47.66527 21.335132-47.66527 47.66527l0 285.950329c0 26.296354 21.368916 47.660265 47.66527 47.660265l285.950329 0c26.301359 0 47.66527-21.363911 47.66527-47.660265L977.044191 644.905047 977.044191 644.905047zM931.622419 475.930701 641.506666 475.930701c-51.604218 0-93.403609-65.660805-93.403609-117.265023L548.103057 93.438619c0-51.570434 41.799391-93.438644 93.403609-93.438644l290.114502 0c51.540404 0 93.403609 41.86821 93.403609 93.438644l0 289.059695C1025.026028 434.097526 983.162823 475.930701 931.622419 475.930701L931.622419 475.930701zM977.044191 96.800738c0-26.300108-21.363911-47.664019-47.66527-47.664019L643.428592 49.13672c-26.296354 0-47.66527 21.363911-47.66527 47.664019l0 285.95158c0 26.330138 21.368916 47.664019 47.66527 47.664019l285.950329 0c26.301359 0 47.66527-21.333881 47.66527-47.664019L977.044191 96.800738 977.044191 96.800738zM383.519362 1023.999975 93.438644 1023.999975C41.799391 1023.999975 0 958.367949 0 906.763731L0 641.541676c0-51.575439 41.799391-93.408614 93.438644-93.408614l290.080718 0c51.575439 0 93.438644 41.834426 93.438644 93.408614l0 289.05469C476.927976 982.200584 435.094801 1023.999975 383.519362 1023.999975L383.519362 1023.999975zM428.941134 644.905047c0-26.330138-21.330127-47.66527-47.660265-47.66527L95.33054 597.239777c-26.301359 0-47.66527 21.335132-47.66527 47.66527l0 285.950329c0 26.296354 21.363911 47.660265 47.66527 47.660265l285.950329 0c26.330138 0 47.660265-21.363911 47.660265-47.660265L428.941134 644.905047 428.941134 644.905047zM383.519362 475.930701 93.438644 475.930701C41.799391 475.930701 0 410.269896 0 358.665679L0 93.438619c0-51.570434 41.799391-93.438644 93.438644-93.438644l290.080718 0c51.575439 0 93.438644 41.834426 93.438644 93.438644l0 289.059695C476.927976 434.097526 435.094801 475.930701 383.519362 475.930701L383.519362 475.930701zM428.941134 96.800738c0-26.300108-21.330127-47.664019-47.660265-47.664019L95.33054 49.13672c-26.301359 0-47.66527 21.363911-47.66527 47.664019l0 285.95158c0 26.330138 21.363911 47.664019 47.66527 47.664019l285.950329 0c26.330138 0 47.660265-21.333881 47.660265-47.664019L428.941134 96.800738 428.941134 96.800738zM428.941134 96.800738" fill="#8e8e8e"></path></g></g></svg>