<?xml version="1.0" standalone="no"?><!DOCTYPE svg PUBLIC "-//W3C//DTD SVG 1.1//EN" "http://www.w3.org/Graphics/SVG/1.1/DTD/svg11.dtd"><svg width="200.1953125" height="200" viewBox="0 0 200.1953125 200" version="1.1" xmlns="http://www.w3.org/2000/svg" xmlns:xlink="http://www.w3.org/1999/xlink"><defs><style type="text/css"><![CDATA[
@font-face { font-family: ifont; src: url("//at.alicdn.com/t/font_1442373896_4754455.eot?#iefix") format("embedded-opentype"), url("//at.alicdn.com/t/font_1442373896_4754455.woff") format("woff"), url("//at.alicdn.com/t/font_1442373896_4754455.ttf") format("truetype"), url("//at.alicdn.com/t/font_1442373896_4754455.svg#ifont") format("svg"); }

]]></style></defs><g class="transform-group"><g transform="scale(0.1953125, 0.1953125)"><path d="M631.064298 388.831933c-7.80059-7.80059-16.103059-14.903629-24.703529-21.403437l-79.910892 79.811884c9.301538 5.500739 18.102369 12.102095 26.104296 20.102851l4.000964 4.000964c51.10739 51.10739 51.10739 134.319351 0 185.427718L338.522923 874.904306c-51.10739 51.10739-134.319546 51.10739-185.427718 0l-4.000964-4.000964c-51.10739-51.10739-51.10739-134.319546 0-185.427718l98.714133-98.714328c-17.102128-42.306559-25.304416-87.413285-24.503169-132.41905l-152.722261 152.722261c-94.113649 94.113649-94.113649 248.236677 0 342.34896l4.000964 4.000964c94.213635 94.113649 248.236677 94.113649 342.34896 0l218.132394-218.132394c94.113649-94.113649 94.113649-248.235506 0-342.34896L631.064298 388.831933 631.064298 388.831933zM953.511744 74.585408l-4.000964-4.000964c-94.113649-94.113649-248.236677-94.113649-342.34896 0L388.929247 288.716838c-94.113649 94.113649-94.113649 248.236677 0 342.34896l4.000964 4.000964c7.80059 7.80059 16.103059 14.903629 24.703529 21.502446l79.811884-79.811884c-9.301538-5.500739-18.102369-12.102095-26.104296-20.102851l-4.000964-4.101144c-51.10739-51.10739-51.10739-134.319351 0-185.427718L685.472757 148.993218c51.107195-51.10739 134.319546-51.10739 185.426546 0l4.000964 4.000964c51.10739 51.10739 51.10739 134.319546 0 185.427718l-98.714328 98.714328c17.102128 42.306559 25.304611 87.413285 24.503559 132.41905l152.822441-152.623252c94.113649-94.213635 94.113649-248.236677 0-342.349155l0 0L953.51194 74.585408z" fill="#272636"></path></g></g></svg>