<?xml version="1.0" standalone="no"?><!DOCTYPE svg PUBLIC "-//W3C//DTD SVG 1.1//EN" "http://www.w3.org/Graphics/SVG/1.1/DTD/svg11.dtd"><svg width="200" height="200" viewBox="0 0 200 200" version="1.1" xmlns="http://www.w3.org/2000/svg" xmlns:xlink="http://www.w3.org/1999/xlink"><defs><style type="text/css"><![CDATA[
@font-face { font-family: ifont; src: url("//at.alicdn.com/t/font_1442373896_4754455.eot?#iefix") format("embedded-opentype"), url("//at.alicdn.com/t/font_1442373896_4754455.woff") format("woff"), url("//at.alicdn.com/t/font_1442373896_4754455.ttf") format("truetype"), url("//at.alicdn.com/t/font_1442373896_4754455.svg#ifont") format("svg"); }

]]></style></defs><g class="transform-group"><g transform="scale(0.1953125, 0.1953125)"><path d="M949.316555 904.352993l-197.961654-175.61981c24.506137-30.629601 44.420699-64.673975 59.35176-101.618399 20.078291-49.678446 30.259164-102.420671 30.259164-156.760277 0-54.339606-10.180873-107.080807-30.259164-156.760277-19.421328-48.055482-47.241954-91.229794-82.686211-128.322597-35.538401-37.19104-76.959789-66.407456-123.114992-86.836741-47.89994-21.201881-98.778724-31.952736-151.22419-31.952736s-103.326297 10.749832-151.225213 31.952736c-46.155203 20.429285-87.577614 49.6457-123.116015 86.836741-35.44528 37.093826-63.264882 80.267115-82.688257 128.322597-20.078291 49.678446-30.259164 102.420671-30.259164 156.760277 0 54.339606 10.180873 107.081831 30.259164 156.760277 19.422352 48.055482 47.242977 91.228771 82.688257 128.321574 35.538401 37.19104 76.960813 66.407456 123.116015 86.835717 47.89994 21.201881 98.779747 31.952736 151.225213 31.952736s103.325273-10.750855 151.22419-31.952736c38.335097-16.968463 73.391521-40.017412 104.537891-68.644403l199.126176 176.653349c5.845125 5.185093 13.117762 7.735172 20.361747 7.735172 8.473999 0 16.909112-3.488451 22.975271-10.326183C963.160865 935.007153 962.000436 915.604244 949.316555 904.352993zM453.682291 812.82644c-179.696662 0-325.890278-153.633053-325.890278-342.471932 0-188.840926 146.193617-342.473979 325.890278-342.473979 179.694615 0 325.886185 153.633053 325.886185 342.473979C779.568477 659.19441 633.375883 812.82644 453.682291 812.82644z" fill="#ccc"></path></g></g></svg>