<?xml version="1.0" standalone="no"?><!DOCTYPE svg PUBLIC "-//W3C//DTD SVG 1.1//EN" "http://www.w3.org/Graphics/SVG/1.1/DTD/svg11.dtd"><svg width="200" height="200" viewBox="0 0 200 200" version="1.1" xmlns="http://www.w3.org/2000/svg" xmlns:xlink="http://www.w3.org/1999/xlink"><defs><style type="text/css"><![CDATA[
@font-face { font-family: ifont; src: url("//at.alicdn.com/t/font_1442373896_4754455.eot?#iefix") format("embedded-opentype"), url("//at.alicdn.com/t/font_1442373896_4754455.woff") format("woff"), url("//at.alicdn.com/t/font_1442373896_4754455.ttf") format("truetype"), url("//at.alicdn.com/t/font_1442373896_4754455.svg#ifont") format("svg"); }

]]></style></defs><g class="transform-group"><g transform="scale(0.1953125, 0.1953125)"><path d="M511.986526 0C229.227789 0 0 229.214316 0 512c0 282.772211 229.227789 512 511.986526 512s512-229.227789 512-512C1023.986526 229.214316 794.745263 0 511.986526 0zM648.946526 176.087579c28.389053 12.234105 55.565474 28.483368 80.613053 48.693895 10.253474 8.232421 20.183579 17.125053 29.655579 26.745263 22.150737 22.460632 40.542316 47.333053 55.498105 73.620211 3.745684 6.602105 7.329684 13.325474 10.617263 20.089263L648.946526 524.301474C650.684632 513.522526 648.946526 176.087579 648.946526 176.087579zM472.764632 150.757053c12.975158-1.549474 26.165895-2.371368 39.585684-2.371368 31.326316 0 61.709474 4.311579 90.583579 12.193684 7.248842 2.034526 14.443789 4.230737 21.490526 6.669474l0 253.197474c-6.292211-8.825263-242.620632-246.258526-242.620632-246.258526C410.462316 162.492632 440.953263 154.421895 472.764632 150.757053zM237.096421 283.769263c8.138105-10.347789 16.828632-20.453053 26.354526-30.086737 22.137263-22.460632 46.592-41.189053 72.555789-56.346947 6.467368-3.799579 13.109895-7.370105 19.819789-10.778947l176.370526 179.051789c-10.617263-1.724632-343.080421 0.067368-343.080421 0.067368C201.189053 336.788211 217.182316 309.207579 237.096421 283.769263zM163.947789 544.997053c-1.522526-13.163789-2.371368-26.610526-2.371368-40.178526 0-31.824842 4.244211-62.598737 12.018526-91.930947 1.980632-7.370105 4.149895-14.713263 6.534737-21.827368l249.465263 0c-8.744421 6.373053-242.539789 246.258526-242.539789 246.258526C175.427368 608.282947 167.545263 577.320421 163.947789 544.997053zM293.901474 783.993263c-10.253474-8.245895-20.210526-17.098105-29.642105-26.691368-22.177684-22.501053-40.623158-47.346526-55.525053-73.687579-3.745684-6.588632-7.316211-13.271579-10.617263-20.129684l176.330105-179.051789c-1.711158 10.819368 0.107789 348.267789 0.107789 348.267789C346.085053 820.453053 319.002947 804.230737 293.901474 783.993263zM550.898526 859.755789c-12.961684 1.509053-26.179368 2.371368-39.558737 2.371368-31.353263 0-61.669053-4.311579-90.570105-12.234105-7.235368-1.967158-14.416842-4.203789-21.504-6.629053L399.265684 590.039579c6.292211 8.879158 242.607158 246.231579 242.580211 246.231579C613.200842 848.020211 582.696421 856.064 550.898526 859.755789zM784.869053 728.090947c-8.151579 10.401684-16.882526 20.506947-26.300632 30.100211-22.177684 22.514526-46.659368 41.229474-72.555789 56.360421-6.534737 3.826526-13.109895 7.397053-19.833263 10.765474L489.795368 646.292211c10.644211 1.724632 343.053474-0.040421 343.053474-0.040421C820.789895 675.098947 804.756211 702.639158 784.869053 728.090947zM850.054737 597.800421c-1.980632 7.356632-4.149895 14.672842-6.534737 21.813895L594.095158 619.614316c8.744421-6.386526 242.553263-246.272 242.553263-246.272 11.573895 29.062737 19.482947 60.011789 23.093895 92.321684 1.522526 13.177263 2.371368 26.597053 2.371368 40.192C862.100211 537.680842 857.842526 568.427789 850.054737 597.800421z" fill="#272636"></path></g></g></svg>