<?xml version="1.0" standalone="no"?><!DOCTYPE svg PUBLIC "-//W3C//DTD SVG 1.1//EN" "http://www.w3.org/Graphics/SVG/1.1/DTD/svg11.dtd"><svg width="200" height="200" viewBox="0 0 200 200" version="1.1" xmlns="http://www.w3.org/2000/svg" xmlns:xlink="http://www.w3.org/1999/xlink"><defs><style type="text/css"><![CDATA[
@font-face { font-family: ifont; src: url("//at.alicdn.com/t/font_1442373896_4754455.eot?#iefix") format("embedded-opentype"), url("//at.alicdn.com/t/font_1442373896_4754455.woff") format("woff"), url("//at.alicdn.com/t/font_1442373896_4754455.ttf") format("truetype"), url("//at.alicdn.com/t/font_1442373896_4754455.svg#ifont") format("svg"); }

]]></style></defs><g class="transform-group"><g transform="scale(0.1953125, 0.1953125)"><path d="M56.888889 512 128 512 192 512 192 576 192 960.157146C192 960.009274 191.99068 960 192.158291 960L448 960 384 1024 384 768 384 704 448 704 576 704 640 704 640 768 640 1024 576 960 831.841709 960C831.776634 960 832 959.77879 832 960.157146L832 576 832 512 896 512 967.11111 512 1004.906029 554.519286 995.25977 576 938.37088 576 469.185441 48.166378 474.20508 42.519286 549.79492 42.519286 554.814559 48.166378 85.629117 576 28.740228 576 19.093968 554.519286 56.888889 512 56.888889 512ZM576 1024 576 1024 576 768 448 768 448 1024 192.158291 1024C156.724645 1024 128 995.43607 128 960.157146L128 576 0 576 512 0 1024 576 896 576 896 960.157146C896 995.416576 866.831296 1024 831.841709 1024L576 1024Z" fill="#8e8e8e"></path></g></g></svg>