<?xml version="1.0" standalone="no"?><!DOCTYPE svg PUBLIC "-//W3C//DTD SVG 1.1//EN" "http://www.w3.org/Graphics/SVG/1.1/DTD/svg11.dtd"><svg width="200" height="200" viewBox="0 0 200 200" version="1.1" xmlns="http://www.w3.org/2000/svg" xmlns:xlink="http://www.w3.org/1999/xlink"><defs><style type="text/css"><![CDATA[
@font-face { font-family: ifont; src: url("//at.alicdn.com/t/font_1442373896_4754455.eot?#iefix") format("embedded-opentype"), url("//at.alicdn.com/t/font_1442373896_4754455.woff") format("woff"), url("//at.alicdn.com/t/font_1442373896_4754455.ttf") format("truetype"), url("//at.alicdn.com/t/font_1442373896_4754455.svg#ifont") format("svg"); }

]]></style></defs><g class="transform-group"><g transform="scale(0.1953125, 0.1953125)"><path d="M796.4672 314.0352c0-156.6976-127.4624-284.16-284.16-284.16-156.6976 0-284.16 127.4624-284.16 284.16 0 156.6976 127.4624 284.16 284.16 284.16C669.0048 598.1952 796.4672 470.7328 796.4672 314.0352zM656.4352 588.0064c-43.0848 22.7584-92.0832 35.7888-144.128 35.7888-49.5872 0-96.3328-12.0064-137.9328-32.8192-84.5056 33.1264-174.08 86.3232-222.1568 164.608-77.7728 136.064-71.424 195.5072-60.7232 218.8288 9.4464 20.5824 26.3936 24.0384 27.1104 24.192L883.5072 998.4c31.7184 0 51.584-6.8352 62.464-21.504 14.5664-19.584 14.4128-54.7072-0.4864-104.3456C898.3808 715.5712 767.1808 629.1968 656.4352 588.0064zM969.984 865.2032c-46.976-156.6208-170.8288-248.0896-284.3392-294.5792 82.2528-55.7312 136.4224-149.9648 136.4224-256.5888 0-170.8032-138.9568-309.76-309.76-309.76s-309.76 138.9568-309.76 309.76c0 109.5936 57.3696 205.8496 143.5136 260.9408-82.8672 34.6112-163.5584 82.2528-216.064 167.9104-58.3936 94.3104-84.7104 193.9456-61.312 243.2C84.1216 1018.496 113.0496 1023.616 116.352 1024l767.1552 0c25.472 0 61.7984-3.3024 82.9952-31.8208C986.4704 965.376 987.5968 923.8528 969.984 865.2032zM228.1472 314.0352c0-156.6976 127.4624-284.16 284.16-284.16 156.6976 0 284.16 127.4624 284.16 284.16 0 156.6976-127.4624 284.16-284.16 284.16C355.6096 598.1952 228.1472 470.7328 228.1472 314.0352zM945.9712 976.896c-10.88 14.6688-30.7456 21.504-62.464 21.504L118.6048 998.6048c-0.7168-0.1536-17.664-3.6096-27.1104-24.192-10.7008-23.3216-17.0496-82.7648 60.7232-218.8288 48.0768-78.2848 137.6256-131.4816 222.1568-164.608 41.6 20.8128 88.3456 32.8192 137.9328 32.8192 52.0448 0 101.0432-13.0304 144.128-35.7888 110.7456 41.1904 241.9456 127.5904 289.0496 284.544C960.384 922.1888 960.5376 957.312 945.9712 976.896z" fill="#8e8e8e"></path></g></g></svg>